<svg xmlns="http://www.w3.org/2000/svg" width="475.1" height="475.1" viewBox="0 0 475.1 475.1"><path fill="#555" d="M464.5 412.8l-98-98C390.3 281 402 243 402 201c0-27.2-5.3-53.2-15.8-78-10.6-25-25-46.3-43-64.3S304 26.4 279.2 16C254 5.2 228 0 201 0c-27.2 0-53.2 5.3-78 16-25 10.4-46.3 24.7-64.3 42.7-18 18-32.3 39.4-43 64.2C5.4 147.2 0 173.2 0 201c0 27.2 5.3 53.2 15.8 78 10.6 25 25 46.3 43 64.3s39.3 32.3 64 43c25 10.4 51 15.7 78.2 15.7 42 0 79.8-11.8 114-35.4l98 97.6c6.7 7.3 15.3 11 25.5 11 10 0 18.5-3.7 25.7-11 7.3-7.2 11-15.8 11-25.7 0-10-3.6-18.6-10.7-25.7zm-173-121.4C266.2 316.4 236 329 201 329s-65.3-12.6-90.4-37.6c-25-25-37.5-55.2-37.5-90.4s13-65.3 38-90.4c25-25 55-37.6 90-37.6s65.6 12.7 90.7 37.7 37.5 55 37.5 90.3-12.5 65.3-37.5 90.4z" /></svg>
